<svg xmlns="http://www.w3.org/2000/svg" width="30.9" height="31.08" viewBox="0 0 30.9 31.08"><defs><style>.cls-1{fill:#fff;}</style></defs><g id="Layer_2" data-name="Layer 2"><g id="Layer_2-2" data-name="Layer 2"><path class="cls-1" d="M9.84,31.08a11,11,0,0,0,8.4-3.6c.42-.48.84-.48,1.14,0,1.38,2.34,2.88,3.48,5.7,3.48,3.3,0,5.82-2,5.82-5,0-.9-.48-1.5-1.32-1.5-1.14,0-1.5,1.74-3,1.74-.9,0-1.32-.48-1.32-1.68l-.18-13.26C25,4.08,21.78,0,13.2,0A26.78,26.78,0,0,0,2.1,2.34a1.56,1.56,0,0,0-.78,2.34l1.8,4c.36.78.72,1.26,1.56,1.26s1.2-.3,1.8-1.14C8.7,5.46,10.62,4,13.2,4c3.18,0,5,1.68,5,5.58v2.7c0,.48-.24.66-.78.6-1.08-.06-2.52-.18-3.72-.18C4.56,12.66,0,16.38,0,22.32,0,27.9,3.66,31.08,9.84,31.08Zm2.28-5C9,26,7.2,24.48,7.2,21.48s1.74-5.1,7-5.1a13.23,13.23,0,0,1,3.24.3c.54.06.78.3.78.84v3.9a3,3,0,0,1-.84,2.34A7,7,0,0,1,12.12,26Z"/></g></g></svg>