<svg xmlns="http://www.w3.org/2000/svg" width="27.98" height="31.08" viewBox="0 0 27.98 31.08"><defs><style>.cls-1{fill:#fff;}</style></defs><g id="Layer_2" data-name="Layer 2"><g id="Layer_2-2" data-name="Layer 2"><path class="cls-1" d="M27.3,21.48a2.13,2.13,0,0,0-2.64.66A9.9,9.9,0,0,1,17.4,25,9.65,9.65,0,0,1,8.16,19a.66.66,0,0,1,.36-1L25.74,11.7a1.51,1.51,0,0,0,1.08-2C25.32,3.54,20.7,0,14.28,0,6.06,0,0,6.24,0,15.54S6.36,31.08,15.18,31.08c7,0,11-3.36,12.42-6.9C28.2,22.8,28.08,22,27.3,21.48ZM13.92,4.56a5.55,5.55,0,0,1,5.4,3.78.83.83,0,0,1-.6,1.14L7.5,13.8c-.54.24-.78.06-.84-.36V12.9C6.66,7.68,9.78,4.56,13.92,4.56Z"/></g></g></svg>