<svg xmlns="http://www.w3.org/2000/svg" width="33.36" height="30.42" viewBox="0 0 33.36 30.42"><defs><style>.cls-1{fill:#fff;}</style></defs><g id="Layer_2" data-name="Layer 2"><g id="Layer_2-2" data-name="Layer 2"><path class="cls-1" d="M13.38,30.42a1.36,1.36,0,0,0,1.5-1.5V28a1.49,1.49,0,0,0-1.26-1.56L12.54,26a2,2,0,0,1-1.62-2.28V9.3a2.07,2.07,0,0,1,1.26-2.1,14.82,14.82,0,0,1,6.9-1.86c2.52,0,3.24,1.56,3.24,4.5V28.92a1.39,1.39,0,0,0,1.5,1.5h8a1.39,1.39,0,0,0,1.5-1.5V28A1.49,1.49,0,0,0,32.1,26.4L31,26a2,2,0,0,1-1.62-2.28V8.64C29.4,3.18,26.76,0,21.66,0a17.47,17.47,0,0,0-9,2.82l-1.08.6c-.48.3-1,.12-1-.48V1.86C10.62.24,9.66-.3,8.1.24L1.26,2.52A1.52,1.52,0,0,0,0,4.08v.84c0,.9.36,1.26,1.32,1.5C3.48,7,4,7.74,4,9.54V23.76A2,2,0,0,1,2.34,26l-1.08.36A1.49,1.49,0,0,0,0,28v1a1.36,1.36,0,0,0,1.5,1.5Z"/></g></g></svg>