<svg xmlns="http://www.w3.org/2000/svg" width="22.03" height="30.38" viewBox="0 0 22.03 30.38"><defs><style>.cls-1{fill:#fff;}</style></defs><g id="Layer_2" data-name="Layer 2"><g id="Layer_2-2" data-name="Layer 2"><path class="cls-1" d="M14,30.38a1.36,1.36,0,0,0,1.5-1.5v-1a1.43,1.43,0,0,0-1.2-1.56L12.54,26a2,2,0,0,1-1.62-2.28V10.4c0-2.58,1.14-3.78,3.3-3.78,1.38,0,2.4.66,3.6,2,.9.72,1.32,1,2,1s1.38-.54,1.5-1.62L22,2.36C22.14.92,21.42.14,19.8.14a12.32,12.32,0,0,0-8,3.36c-.6.6-1.2.36-1.2-.3V1.82C10.62.2,9.6-.34,8.1.2L1.26,2.48A1.52,1.52,0,0,0,0,4v.84c0,.9.36,1.26,1.32,1.5C3.48,6.92,4,7.7,4,9.5V23.72A2,2,0,0,1,2.34,26l-1.08.36A1.49,1.49,0,0,0,0,27.92v1a1.36,1.36,0,0,0,1.5,1.5Z"/></g></g></svg>