<svg width="34.86" height="43.2" viewBox="0 0 34.86 43.2"><defs></defs><g id="Layer_2"><g id="Layer_2-2" ><path class="cls-1" d="M20.22,43.2c8.58,0,14.7-4.5,14.64-12.42C34.8,23,29.22,19.92,22.92,18l-7.08-2.28C11.52,14.34,9,12.6,9,9.66c0-3.18,2.4-5.22,6.78-5.22s7.8,2.34,12.78,8.1a1.64,1.64,0,0,0,2.28.42l.66-.36a1.49,1.49,0,0,0,.66-2L27.78,1.5C27.3.54,26.94,0,25.92,0H25.5c-1.14,0-1.68.78-3.36.78C20.22.78,18.3,0,15.42,0,6.66,0,1.62,4.62,1.62,11.22c0,6.3,4.62,9.6,10.56,11.58l7.32,2.4c4.68,1.62,7.44,3.54,7.44,7.38s-2.7,6.06-7.62,6.06c-5.46,0-10.86-3.36-14.94-9.6a1.71,1.71,0,0,0-2.46-.72L1,28.8A1.56,1.56,0,0,0,.3,31.2L5.22,41.64c.54,1,1.14,1.44,2,1.44h.54c1.32,0,2.28-.9,3.72-.9C13.68,42.18,15.84,43.2,20.22,43.2Z"/></g></g></svg>