<svg xmlns="http://www.w3.org/2000/svg" width="19.5" height="37.02" viewBox="0 0 19.5 37.02"><defs><style>.cls-1{fill:#fff;}</style></defs><g id="Layer_2" data-name="Layer 2"><g id="Layer_2-2" data-name="Layer 2"><path class="cls-1" d="M11.7,37c5.1,0,7.8-2.58,7.8-5.22,0-.9-.48-1.44-1.26-1.44-1.38,0-1.8,1.44-4.5,1.44-1.74,0-2.52-.84-2.52-2.64V12.06a.69.69,0,0,1,.72-.72h5.52A1.42,1.42,0,0,0,19,9.84V8.1a1.42,1.42,0,0,0-1.5-1.5H12.12a.69.69,0,0,1-.72-.72V1.8A1.58,1.58,0,0,0,9.72,0,2.9,2.9,0,0,0,7.5,1.14,31.86,31.86,0,0,1,1.14,7.2,2.12,2.12,0,0,0,0,9.12V9.9a1.37,1.37,0,0,0,1.5,1.44h2a.69.69,0,0,1,.72.72V30.24C4.26,34.56,6.78,37,11.7,37Z"/></g></g></svg>