<svg xmlns="http://www.w3.org/2000/svg" width="33.42" height="31.09" viewBox="0 0 33.42 31.09"><defs><style>.cls-1{fill:#fff;}</style></defs><g id="Layer_2" data-name="Layer 2"><g id="Layer_1-2" data-name="Layer 1"><path class="cls-1" d="M12.3,31.09a14.17,14.17,0,0,0,8.58-2.64l1-.72c.48-.36.84-.18,1,.48l.12.66c.24,1.08.72,1.56,1.8,1.56h7.2a1.39,1.39,0,0,0,1.5-1.5V28c0-.9-.48-1.32-1.38-1.62l-1-.3a2,2,0,0,1-1.68-2.22v-22c0-1.68-1-2.1-2.46-1.62l-7.2,2.46c-1,.36-1.26.84-1.26,1.56v.84c0,.84.36,1.26,1.32,1.44,2.16.54,2.64,1.26,2.64,3V21.61a2.24,2.24,0,0,1-1.2,2.16,12.58,12.58,0,0,1-6.6,2c-2.82,0-3.6-1.44-3.6-4.32V1.81C11,.19,10-.29,8.52.19L1.32,2.65C.3,3,0,3.49,0,4.21v.84c0,.78.36,1.26,1.32,1.44C3.54,7,4,7.75,4,9.49v12.9C4,27.73,6.3,31.09,12.3,31.09Z"/></g></g></svg>